<svg width="544" height="523" viewBox="0 0 544 523" fill="none" xmlns="http://www.w3.org/2000/svg">
<path d="M282.18 491.915C415.38 491.915 523.36 383.935 523.36 250.735C523.36 117.535 415.38 9.55469 282.18 9.55469C148.98 9.55469 41 117.535 41 250.735C41 383.935 148.98 491.915 282.18 491.915Z" fill="url(#paint0_radial_862_12584)"/>
<g style="mix-blend-mode:soft-light">
<path d="M282.18 491.915C415.38 491.915 523.36 383.935 523.36 250.735C523.36 117.535 415.38 9.55469 282.18 9.55469C148.98 9.55469 41 117.535 41 250.735C41 383.935 148.98 491.915 282.18 491.915Z" fill="url(#paint1_radial_862_12584)"/>
</g>
<g style="mix-blend-mode:soft-light">
<path d="M282.18 491.915C415.38 491.915 523.36 383.935 523.36 250.735C523.36 117.535 415.38 9.55469 282.18 9.55469C148.98 9.55469 41 117.535 41 250.735C41 383.935 148.98 491.915 282.18 491.915Z" fill="url(#paint2_radial_862_12584)"/>
</g>
<g style="mix-blend-mode:overlay">
<path d="M282.18 491.915C415.38 491.915 523.36 383.935 523.36 250.735C523.36 117.535 415.38 9.55469 282.18 9.55469C148.98 9.55469 41 117.535 41 250.735C41 383.935 148.98 491.915 282.18 491.915Z" fill="url(#paint3_radial_862_12584)" fill-opacity="0.7"/>
</g>
<mask id="mask0_862_12584" style="mask-type:alpha" maskUnits="userSpaceOnUse" x="41" y="9" width="483" height="483">
<path d="M282.18 491.915C415.38 491.915 523.36 383.935 523.36 250.735C523.36 117.535 415.38 9.55469 282.18 9.55469C148.98 9.55469 41 117.535 41 250.735C41 383.935 148.98 491.915 282.18 491.915Z" fill="white"/>
</mask>
<g mask="url(#mask0_862_12584)">
<g filter="url(#filter0_f_862_12584)">
<path d="M39.6241 243.854C39.886 240.427 41.0137 240.084 41.3426 243.563C41.7081 247.429 40.9977 255.202 41.1687 259.89C41.6216 272.303 43.5244 283.096 45.486 291.876C51.8075 320.167 60.5617 338.398 68.7268 353.844C95.5663 404.616 124.967 430.326 153.648 449.702C195.689 478.104 238.072 487.139 280.49 489.055C281.56 489.104 281.738 496.073 280.686 496.98C278.788 498.616 276.436 496.992 274.494 496.924C268.915 496.729 263.335 496.346 257.756 495.766C241.213 494.047 224.67 490.546 208.162 484.913C163.275 469.599 114.877 443.376 72.6092 369.517C69.9502 364.871 67.3124 359.979 64.7118 354.722C62.6321 350.518 60.5726 346.112 58.5493 341.399C51.8946 325.897 36.3868 286.213 39.6241 243.854ZM280.52 497.055C279.499 497.086 279.241 490.589 280.214 489.241C281.684 487.202 283.888 488.881 285.439 488.784C291.877 488.382 298.314 487.784 304.75 486.976C322.395 484.761 340.028 480.977 357.621 475.151C401.257 460.701 448.17 438.67 489.305 370.986C491.923 366.678 494.518 362.109 497.079 357.196C504.86 342.267 524.361 302.639 522.107 253.376C521.917 249.223 523.181 246.736 523.747 250.298C524.467 254.834 524.175 264.291 523.977 269.323C523.341 285.438 520.866 299.067 518.257 310.073C509.987 344.954 498.376 365.178 487.744 382.065C453.184 436.952 415.648 459.079 379.155 474.979C346.424 489.241 313.444 496.039 280.52 497.055Z" fill="#401C02"/>
</g>
<g filter="url(#filter1_f_862_12584)">
<path d="M39.6241 243.854C39.886 240.427 41.0137 240.084 41.3426 243.563C41.7081 247.429 40.9977 255.202 41.1687 259.89C41.6216 272.303 43.5244 283.096 45.486 291.876C51.8075 320.167 60.5617 338.398 68.7268 353.844C95.5663 404.616 124.967 430.326 153.648 449.702C195.689 478.104 238.072 487.139 280.49 489.055C281.56 489.104 281.738 496.073 280.686 496.98C278.788 498.616 276.436 496.992 274.494 496.924C268.915 496.729 263.335 496.346 257.756 495.766C241.213 494.047 224.67 490.546 208.162 484.913C163.275 469.599 114.877 443.376 72.6092 369.517C69.9502 364.871 67.3124 359.979 64.7118 354.722C62.6321 350.518 60.5726 346.112 58.5493 341.399C51.8946 325.897 36.3868 286.213 39.6241 243.854ZM280.52 497.055C279.499 497.086 279.241 490.589 280.214 489.241C281.684 487.202 283.888 488.881 285.439 488.784C291.877 488.382 298.314 487.784 304.75 486.976C322.395 484.761 340.028 480.977 357.621 475.151C401.257 460.701 448.17 438.67 489.305 370.986C491.923 366.678 494.518 362.109 497.079 357.196C504.86 342.267 524.361 302.639 522.107 253.376C521.917 249.223 523.181 246.736 523.747 250.298C524.467 254.834 524.175 264.291 523.977 269.323C523.341 285.438 520.866 299.067 518.257 310.073C509.987 344.954 498.376 365.178 487.744 382.065C453.184 436.952 415.648 459.079 379.155 474.979C346.424 489.241 313.444 496.039 280.52 497.055Z" fill="#401C02"/>
</g>
</g>
<g opacity="0.7">
<g filter="url(#filter2_f_862_12584)">
<circle cx="416" cy="262.555" r="50" fill="#E66200"/>
</g>
<g filter="url(#filter3_f_862_12584)">
<circle cx="149" cy="262.555" r="50" fill="#E66200"/>
</g>
</g>
<path d="M352.945 341.364C353.332 341.06 353.806 340.887 354.297 340.868C354.789 340.85 355.274 340.988 355.683 341.262C356.091 341.536 356.402 341.933 356.572 342.395C356.741 342.857 356.76 343.361 356.625 343.834C348.325 375.444 318.235 398.834 282.355 398.834C246.475 398.834 216.355 375.394 208.085 343.764C207.954 343.292 207.975 342.789 208.145 342.329C208.316 341.87 208.627 341.475 209.035 341.203C209.443 340.93 209.926 340.793 210.417 340.811C210.907 340.829 211.379 341.002 211.765 341.304C229.605 354.954 254.655 363.454 282.355 363.454C310.055 363.454 335.095 354.984 352.945 341.364Z" fill="url(#paint4_radial_862_12584)"/>
<path d="M352.945 341.364C353.332 341.06 353.806 340.887 354.297 340.868C354.789 340.85 355.274 340.988 355.683 341.262C356.091 341.536 356.402 341.933 356.572 342.395C356.741 342.857 356.76 343.361 356.625 343.834C348.325 375.444 318.235 398.834 282.355 398.834C246.475 398.834 216.355 375.394 208.085 343.764C207.954 343.292 207.975 342.789 208.145 342.329C208.316 341.87 208.627 341.475 209.035 341.203C209.443 340.93 209.926 340.793 210.417 340.811C210.907 340.829 211.379 341.002 211.765 341.304C229.605 354.954 254.655 363.454 282.355 363.454C310.055 363.454 335.095 354.984 352.945 341.364Z" stroke="url(#paint5_linear_862_12584)" stroke-width="2.5" stroke-miterlimit="10"/>
<path d="M102.565 170.774C110.495 162.714 159.775 116.064 205.745 149.414C207.253 150.574 208.37 152.166 208.949 153.978C209.528 155.79 209.541 157.735 208.985 159.554C208.648 160.824 207.918 161.954 206.9 162.784C205.881 163.614 204.627 164.1 203.315 164.174C188.885 165.614 162.365 148.054 120.015 173.124C116.325 175.368 112.759 177.812 109.335 180.444C106.835 182.314 102.845 184.544 100.425 182.014C98.3552 179.854 98.9052 177.014 99.7952 174.854C100.45 173.33 101.39 171.945 102.565 170.774Z" fill="#42210B"/>
<path d="M461.585 170.774C453.645 162.714 404.365 116.064 358.405 149.414C356.895 150.572 355.776 152.164 355.197 153.977C354.617 155.789 354.606 157.735 355.165 159.554C355.501 160.824 356.23 161.956 357.249 162.786C358.267 163.616 359.523 164.102 360.835 164.174C375.255 165.614 401.785 148.054 444.135 173.124C447.822 175.373 451.387 177.816 454.815 180.444C457.315 182.314 461.305 184.544 463.725 182.014C465.795 179.854 465.245 177.014 464.345 174.854C463.693 173.331 462.756 171.946 461.585 170.774Z" fill="#42210B"/>
<path d="M222.585 257.114C219.054 255.102 215.271 253.568 211.335 252.554C196.255 248.554 181.655 252.864 168.505 260.504C153.795 269.044 140.505 246.264 155.195 237.734C182.575 221.834 218.025 218.984 243.755 239.794C256.615 250.194 239.125 268.084 226.115 259.194C224.976 258.429 223.798 257.725 222.585 257.084V257.114Z" fill="url(#paint6_radial_862_12584)"/>
<path d="M222.585 257.114C219.054 255.102 215.271 253.568 211.335 252.554C196.255 248.554 181.655 252.864 168.505 260.504C153.795 269.044 140.505 246.264 155.195 237.734C182.575 221.834 218.025 218.984 243.755 239.794C256.615 250.194 239.125 268.084 226.115 259.194C224.976 258.429 223.798 257.725 222.585 257.084V257.114Z" stroke="url(#paint7_linear_862_12584)" stroke-width="2" stroke-miterlimit="10"/>
<path d="M389.674 257.114C386.142 255.105 382.359 253.572 378.424 252.554C363.344 248.554 348.744 252.864 335.584 260.504C320.884 269.044 307.584 246.264 322.274 237.734C349.664 221.834 385.104 218.984 410.834 239.794C423.704 250.194 406.214 268.084 393.194 259.194C392.058 258.431 390.883 257.727 389.674 257.084V257.114Z" fill="url(#paint8_radial_862_12584)"/>
<path d="M389.674 257.114C386.142 255.105 382.359 253.572 378.424 252.554C363.344 248.554 348.744 252.864 335.584 260.504C320.884 269.044 307.584 246.264 322.274 237.734C349.664 221.834 385.104 218.984 410.834 239.794C423.704 250.194 406.214 268.084 393.194 259.194C392.058 258.431 390.883 257.727 389.674 257.084V257.114Z" stroke="url(#paint9_linear_862_12584)" stroke-width="2" stroke-miterlimit="10"/>
<mask id="mask1_862_12584" style="mask-type:alpha" maskUnits="userSpaceOnUse" x="41" y="9" width="483" height="483">
<path d="M282.18 491.915C415.38 491.915 523.36 383.935 523.36 250.735C523.36 117.535 415.38 9.55469 282.18 9.55469C148.98 9.55469 41 117.535 41 250.735C41 383.935 148.98 491.915 282.18 491.915Z" fill="url(#paint10_radial_862_12584)"/>
</mask>
<g mask="url(#mask1_862_12584)">
<g style="mix-blend-mode:multiply" filter="url(#filter4_f_862_12584)">
<path d="M465.261 38.7542C504.561 -18.9458 619.861 66.1543 465.261 162.854C310.761 66.1543 425.961 -18.9458 465.261 38.7542Z" fill="#692A00"/>
</g>
<g style="mix-blend-mode:multiply" filter="url(#filter5_f_862_12584)">
<path d="M88.2615 336.309C127.561 278.609 242.861 363.709 88.2615 460.409C-66.2385 363.709 48.9615 278.609 88.2615 336.309Z" fill="#692A00"/>
</g>
<g style="mix-blend-mode:multiply" filter="url(#filter6_f_862_12584)">
<path d="M445.261 399.309C484.561 341.609 599.861 426.709 445.261 523.409C290.761 426.709 405.961 341.609 445.261 399.309Z" fill="#692A00"/>
</g>
</g>
<path d="M465.261 398.754C504.561 341.054 619.861 426.154 465.261 522.854C310.761 426.154 425.961 341.054 465.261 398.754Z" fill="url(#paint11_linear_862_12584)"/>
<mask id="mask2_862_12584" style="mask-type:alpha" maskUnits="userSpaceOnUse" x="387" y="380" width="157" height="143">
<path d="M465.261 398.754C504.561 341.054 619.861 426.154 465.261 522.854C310.761 426.154 425.961 341.054 465.261 398.754Z" fill="url(#paint12_linear_862_12584)"/>
</mask>
<g mask="url(#mask2_862_12584)">
<g filter="url(#filter7_f_862_12584)">
<path d="M397.085 437.555C394.785 429.255 396.185 419.555 400.885 411.155C405.585 402.755 413.485 395.755 423.085 391.855C427.885 389.955 433.085 388.755 438.485 388.555C443.885 388.355 449.385 389.055 454.685 390.755C459.985 392.455 464.985 395.155 469.385 398.555C473.785 401.955 477.385 406.055 480.385 410.355H455.585C456.385 409.255 457.185 408.255 457.985 407.155C458.785 406.055 459.685 405.055 460.585 404.055C461.485 403.055 462.485 402.155 463.485 401.155C464.485 400.155 465.585 399.355 466.585 398.455C470.985 395.055 475.985 392.355 481.285 390.655C486.585 388.955 492.185 388.255 497.585 388.455C502.985 388.655 508.185 389.855 512.985 391.755C522.585 395.655 530.485 402.655 535.185 411.055C539.885 419.455 541.285 429.155 538.985 437.455C536.785 433.755 534.585 430.455 532.085 427.655C529.585 424.855 526.885 422.555 523.985 420.655C518.385 416.955 512.285 414.955 506.585 414.555C500.885 414.155 495.585 415.155 491.285 417.355C486.985 419.555 483.485 422.755 480.385 427.255L467.985 445.055L455.585 427.255C452.485 422.855 448.985 419.555 444.685 417.355C440.385 415.155 435.185 414.055 429.385 414.555C423.685 415.055 417.585 416.955 411.985 420.755C409.185 422.655 406.485 424.955 403.885 427.755C401.485 430.555 399.185 433.755 397.085 437.555Z" fill="#FF3E3E"/>
</g>
<g filter="url(#filter8_f_862_12584)">
<path d="M449 511.154C446.8 509.854 444.7 508.554 442.6 507.254C441.5 506.554 440.5 505.954 439.4 505.254C438.4 504.554 437.4 503.854 436.3 503.054L430.2 498.654C428.2 497.054 426.3 495.454 424.4 493.854C416.8 487.354 409.6 480.054 403.5 471.954C397.4 463.854 392.4 454.754 389.5 444.954L388.5 441.254C388.2 440.054 388 438.754 387.8 437.454L387.5 435.554C387.4 434.954 387.4 434.254 387.3 433.654L387 429.854C387 424.754 387.6 419.654 389.1 414.854C388.6 419.854 388.8 424.754 389.4 429.554L390.1 433.154C390.2 433.754 390.3 434.354 390.5 434.954L391 436.754C391.4 437.954 391.6 439.054 392 440.254L393.2 443.654C396.6 452.754 401.6 461.154 407.5 468.954C413.3 476.754 420 483.954 427 490.954C428.8 492.654 430.5 494.354 432.3 496.154L437.8 501.154C438.7 501.954 439.6 502.854 440.5 503.654C441.4 504.454 442.4 505.254 443.3 506.054C445.3 507.754 447.2 509.454 449 511.154Z" fill="white"/>
</g>
<g filter="url(#filter9_f_862_12584)">
<path d="M390 419.354C390 410.554 392.9 401.454 398.5 393.954C404 386.454 412.1 380.754 421.1 377.754C430.2 374.754 440.4 374.654 449.7 378.054C454.3 379.654 458.7 382.154 462.5 385.254C466.3 388.354 469.6 391.954 472.4 395.954H464.1C466.8 391.954 470.1 388.354 473.9 385.254C477.7 382.154 482.1 379.754 486.7 378.054C496 374.754 506.2 374.754 515.3 377.754C524.4 380.754 532.4 386.454 538 393.954C543.6 401.454 546.5 410.554 546.5 419.354C546.2 418.254 545.9 417.254 545.6 416.154C545.3 415.154 544.9 414.054 544.5 413.054C543.7 411.054 542.8 409.054 541.8 407.154C539.7 403.454 537.2 400.054 534.3 397.054C528.4 391.154 521 387.054 513.2 385.254C505.4 383.454 497.2 383.954 490.1 386.854C482.9 389.754 476.8 394.954 472.4 401.454L468.3 407.554L464.2 401.454C459.7 394.954 453.7 389.654 446.5 386.754C439.3 383.854 431.2 383.354 423.3 385.154C415.5 386.954 408.1 391.054 402.2 396.954C399.3 399.854 396.7 403.354 394.7 407.054C393.7 408.954 392.8 410.854 392 412.954C391.6 413.954 391.2 414.954 390.9 416.054C390.6 417.154 390.3 418.254 390 419.354Z" fill="#700000"/>
</g>
<g filter="url(#filter10_f_862_12584)">
<path d="M390 419.354C390 410.554 392.9 401.454 398.5 393.954C404 386.454 412.1 380.754 421.1 377.754C430.2 374.754 440.4 374.654 449.7 378.054C454.3 379.654 458.7 382.154 462.5 385.254C466.3 388.354 469.6 391.954 472.4 395.954H464.1C466.8 391.954 470.1 388.354 473.9 385.254C477.7 382.154 482.1 379.754 486.7 378.054C496 374.754 506.2 374.754 515.3 377.754C524.4 380.754 532.4 386.454 538 393.954C543.6 401.454 546.5 410.554 546.5 419.354C546.2 418.254 545.9 417.254 545.6 416.154C545.3 415.154 544.9 414.054 544.5 413.054C543.7 411.054 542.8 409.054 541.8 407.154C539.7 403.454 537.2 400.054 534.3 397.054C528.4 391.154 521 387.054 513.2 385.254C505.4 383.454 497.2 383.954 490.1 386.854C482.9 389.754 476.8 394.954 472.4 401.454L468.3 407.554L464.2 401.454C459.7 394.954 453.7 389.654 446.5 386.754C439.3 383.854 431.2 383.354 423.3 385.154C415.5 386.954 408.1 391.054 402.2 396.954C399.3 399.854 396.7 403.354 394.7 407.054C393.7 408.954 392.8 410.854 392 412.954C391.6 413.954 391.2 414.954 390.9 416.054C390.6 417.154 390.3 418.254 390 419.354Z" fill="#700000"/>
</g>
<g filter="url(#filter11_f_862_12584)">
<path d="M394.085 437.555C391.785 429.255 393.185 419.555 397.885 411.155C402.585 402.755 410.485 395.755 420.085 391.855C424.885 389.955 430.085 388.755 435.485 388.555C440.885 388.355 446.385 389.055 451.685 390.755C456.985 392.455 461.985 395.155 466.385 398.555C470.785 401.955 474.385 406.055 477.385 410.355H452.585C453.385 409.255 454.185 408.255 454.985 407.155C455.785 406.055 456.685 405.055 457.585 404.055C458.485 403.055 459.485 402.155 460.485 401.155C461.485 400.155 462.585 399.355 463.585 398.455C467.985 395.055 472.985 392.355 478.285 390.655C483.585 388.955 489.185 388.255 494.585 388.455C499.985 388.655 505.185 389.855 509.985 391.755C519.585 395.655 527.485 402.655 532.185 411.055C536.885 419.455 538.285 429.155 535.985 437.455C533.785 433.755 531.585 430.455 529.085 427.655C526.585 424.855 523.885 422.555 520.985 420.655C515.385 416.955 509.285 414.955 503.585 414.555C497.885 414.155 492.585 415.155 488.285 417.355C483.985 419.555 480.485 422.755 477.385 427.255L464.985 445.055L452.685 427.255C449.585 422.855 446.085 419.555 441.785 417.355C437.485 415.155 432.285 414.055 426.485 414.555C420.785 415.055 414.685 416.955 409.085 420.755C406.285 422.655 403.585 424.955 400.985 427.755C398.485 430.555 396.185 433.755 394.085 437.555Z" fill="#FF9797"/>
</g>
<g filter="url(#filter12_f_862_12584)">
<path d="M482 511.155C483.8 509.455 485.7 507.755 487.6 506.155C488.5 505.355 489.5 504.555 490.4 503.755C491.3 502.955 492.2 502.055 493.1 501.255L498.6 496.255C500.3 494.455 502.1 492.755 503.9 491.055C510.9 484.055 517.5 476.855 523.4 469.055C529.2 461.255 534.3 452.855 537.7 443.755L538.9 440.355C539.3 439.155 539.5 438.055 539.9 436.855L540.4 435.055C540.6 434.455 540.6 433.855 540.8 433.255L541.5 429.655C542.2 424.855 542.3 419.855 541.8 414.955C543.4 419.755 543.9 424.855 543.9 429.955L543.6 433.755C543.5 434.355 543.5 435.055 543.4 435.655L543.1 437.555C542.9 438.855 542.7 440.055 542.4 441.355L541.4 445.055C538.5 454.855 533.5 463.955 527.4 472.055C521.3 480.155 514.2 487.455 506.5 493.955C504.6 495.555 502.7 497.155 500.7 498.755L494.6 503.155C493.6 503.855 492.6 504.655 491.5 505.355C490.4 506.055 489.4 506.755 488.3 507.355C486.3 508.555 484.2 509.955 482 511.155Z" fill="white"/>
</g>
</g>
<g style="mix-blend-mode:soft-light">
<path d="M465.305 398.754C504.605 341.054 619.905 426.154 465.305 522.854C310.705 426.154 426.005 341.054 465.305 398.754Z" fill="url(#paint13_linear_862_12584)"/>
</g>
<g style="mix-blend-mode:soft-light">
<path d="M465.305 398.754C426.005 341.054 310.705 426.154 465.305 522.854C619.905 426.154 504.605 341.054 465.305 398.754Z" fill="url(#paint14_linear_862_12584)"/>
</g>
<mask id="mask3_862_12584" style="mask-type:alpha" maskUnits="userSpaceOnUse" x="387" y="380" width="157" height="143">
<path d="M465.261 398.754C504.561 341.054 619.861 426.154 465.261 522.854C310.761 426.154 425.961 341.054 465.261 398.754Z" fill="url(#paint15_linear_862_12584)"/>
</mask>
<g mask="url(#mask3_862_12584)">
<g filter="url(#filter13_f_862_12584)">
<path d="M438 380.555C440.8 380.955 443.5 381.655 446.2 382.655C448.8 383.655 451.4 384.955 453.8 386.555C456.2 388.055 458.4 389.955 460.4 391.955C462.4 393.955 464.2 396.155 465.8 398.555H465C466.6 396.255 468.4 394.055 470.4 391.955C472.4 389.955 474.6 388.055 477 386.555C479.4 384.955 481.9 383.655 484.6 382.655C487.3 381.655 490 380.955 492.8 380.555C487.2 381.655 482 383.955 477.4 387.155C475.1 388.755 473 390.555 471 392.555C469.1 394.555 467.3 396.755 465.7 399.055L465.3 399.655L465 399.055C463.4 396.755 461.7 394.555 459.7 392.555C457.8 390.555 455.6 388.755 453.3 387.155C448.8 383.955 443.5 381.655 438 380.555Z" fill="#820010"/>
</g>
<g filter="url(#filter14_f_862_12584)">
<path d="M438 380.555C440.8 380.955 443.5 381.655 446.2 382.655C448.8 383.655 451.4 384.955 453.8 386.555C456.2 388.055 458.4 389.955 460.4 391.955C462.4 393.955 464.2 396.155 465.8 398.555H465C466.6 396.255 468.4 394.055 470.4 391.955C472.4 389.955 474.6 388.055 477 386.555C479.4 384.955 481.9 383.655 484.6 382.655C487.3 381.655 490 380.955 492.8 380.555C487.2 381.655 482 383.955 477.4 387.155C475.1 388.755 473 390.555 471 392.555C469.1 394.555 467.3 396.755 465.7 399.055L465.3 399.655L465 399.055C463.4 396.755 461.7 394.555 459.7 392.555C457.8 390.555 455.6 388.755 453.3 387.155C448.8 383.955 443.5 381.655 438 380.555Z" fill="#820010"/>
</g>
<g filter="url(#filter15_f_862_12584)">
<path d="M438 380.555C440.8 380.955 443.5 381.655 446.2 382.655C448.8 383.655 451.4 384.955 453.8 386.555C456.2 388.055 458.4 389.955 460.4 391.955C462.4 393.955 464.2 396.155 465.8 398.555H465C466.6 396.255 468.4 394.055 470.4 391.955C472.4 389.955 474.6 388.055 477 386.555C479.4 384.955 481.9 383.655 484.6 382.655C487.3 381.655 490 380.955 492.8 380.555C487.2 381.655 482 383.955 477.4 387.155C475.1 388.755 473 390.555 471 392.555C469.1 394.555 467.3 396.755 465.7 399.055L465.3 399.655L465 399.055C463.4 396.755 461.7 394.555 459.7 392.555C457.8 390.555 455.6 388.755 453.3 387.155C448.8 383.955 443.5 381.655 438 380.555Z" fill="#820010"/>
</g>
</g>
<path d="M78.2615 336.754C117.561 279.054 232.861 364.154 78.2615 460.854C-76.2385 364.154 38.9615 279.054 78.2615 336.754Z" fill="url(#paint16_linear_862_12584)"/>
<mask id="mask4_862_12584" style="mask-type:alpha" maskUnits="userSpaceOnUse" x="0" y="318" width="157" height="143">
<path d="M78.2615 336.754C117.561 279.054 232.861 364.154 78.2615 460.854C-76.2385 364.154 38.9615 279.054 78.2615 336.754Z" fill="url(#paint17_linear_862_12584)"/>
</mask>
<g mask="url(#mask4_862_12584)">
<g filter="url(#filter16_f_862_12584)">
<path d="M10.0846 375.555C7.78461 367.255 9.18466 357.555 13.8847 349.155C18.5847 340.755 26.4846 333.755 36.0846 329.855C40.8846 327.955 46.0846 326.755 51.4846 326.555C56.8846 326.355 62.3847 327.055 67.6847 328.755C72.9847 330.455 77.9847 333.155 82.3847 336.555C86.7847 339.955 90.3847 344.055 93.3847 348.355H68.5846C69.3846 347.255 70.1846 346.255 70.9846 345.155C71.7846 344.055 72.6846 343.055 73.5846 342.055C74.4846 341.055 75.4846 340.155 76.4846 339.155C77.4846 338.155 78.5846 337.355 79.5846 336.455C83.9846 333.055 88.9847 330.355 94.2847 328.655C99.5847 326.955 105.185 326.255 110.585 326.455C115.985 326.655 121.185 327.855 125.985 329.755C135.585 333.655 143.485 340.655 148.185 349.055C152.885 357.455 154.285 367.155 151.985 375.455C149.785 371.755 147.585 368.455 145.085 365.655C142.585 362.855 139.885 360.555 136.985 358.655C131.385 354.955 125.285 352.955 119.585 352.555C113.885 352.155 108.585 353.155 104.285 355.355C99.9847 357.555 96.4847 360.755 93.3847 365.255L80.9846 383.055L68.5846 365.255C65.4846 360.855 61.9847 357.555 57.6847 355.355C53.3847 353.155 48.1847 352.055 42.3847 352.555C36.6847 353.055 30.5846 354.955 24.9846 358.755C22.1846 360.655 19.4847 362.955 16.8847 365.755C14.4847 368.555 12.1846 371.755 10.0846 375.555Z" fill="#FF3E3E"/>
</g>
<g filter="url(#filter17_f_862_12584)">
<path d="M62 449.154C59.8 447.854 57.7001 446.554 55.6001 445.254C54.5001 444.554 53.5 443.954 52.4 443.254C51.4 442.554 50.4 441.854 49.3 441.054L43.2001 436.654C41.2001 435.054 39.3 433.454 37.4 431.854C29.8 425.354 22.6 418.054 16.5 409.954C10.4 401.854 5.4 392.754 2.5 382.954L1.5 379.254C1.2 378.054 1.00005 376.754 0.800049 375.454L0.5 373.554C0.4 372.954 0.400049 372.254 0.300049 371.654L0 367.854C0 362.754 0.600098 357.654 2.1001 352.854C1.6001 357.854 1.80002 362.754 2.40002 367.554L3.1001 371.154C3.2001 371.754 3.3 372.354 3.5 372.954L4 374.754C4.4 375.954 4.6 377.054 5 378.254L6.20007 381.654C9.60007 390.754 14.6 399.154 20.5 406.954C26.3 414.754 33 421.954 40 428.954C41.8 430.654 43.5 432.354 45.3 434.154L50.8 439.154C51.7001 439.954 52.6 440.854 53.5 441.654C54.4 442.454 55.4 443.254 56.3 444.054C58.3 445.754 60.2 447.454 62 449.154Z" fill="white"/>
</g>
<g filter="url(#filter18_f_862_12584)">
<path d="M3 357.354C3 348.554 5.9 339.454 11.5 331.954C17 324.454 25.1 318.754 34.1 315.754C43.2 312.754 53.4 312.654 62.7 316.054C67.3 317.654 71.7 320.154 75.5 323.254C79.3 326.354 82.6 329.954 85.4 333.954H77.1C79.8 329.954 83.1 326.354 86.9 323.254C90.7 320.154 95.1 317.754 99.7 316.054C109 312.754 119.2 312.754 128.3 315.754C137.4 318.754 145.4 324.454 151 331.954C156.6 339.454 159.5 348.554 159.5 357.354C159.2 356.254 158.9 355.254 158.6 354.154C158.3 353.154 157.9 352.054 157.5 351.054C156.7 349.054 155.8 347.054 154.8 345.154C152.7 341.454 150.2 338.054 147.3 335.054C141.4 329.154 134 325.054 126.2 323.254C118.4 321.454 110.2 321.954 103.1 324.854C95.9 327.754 89.8 332.954 85.4 339.454L81.3 345.554L77.2 339.454C72.7 332.954 66.7 327.654 59.5 324.754C52.3 321.854 44.2 321.354 36.3 323.154C28.5 324.954 21.1 329.054 15.2 334.954C12.3 337.854 9.70001 341.354 7.70001 345.054C6.70001 346.954 5.8 348.854 5 350.954C4.6 351.954 4.20002 352.954 3.90002 354.054C3.60002 355.154 3.3 356.254 3 357.354Z" fill="#700000"/>
</g>
<g filter="url(#filter19_f_862_12584)">
<path d="M3 357.354C3 348.554 5.9 339.454 11.5 331.954C17 324.454 25.1 318.754 34.1 315.754C43.2 312.754 53.4 312.654 62.7 316.054C67.3 317.654 71.7 320.154 75.5 323.254C79.3 326.354 82.6 329.954 85.4 333.954H77.1C79.8 329.954 83.1 326.354 86.9 323.254C90.7 320.154 95.1 317.754 99.7 316.054C109 312.754 119.2 312.754 128.3 315.754C137.4 318.754 145.4 324.454 151 331.954C156.6 339.454 159.5 348.554 159.5 357.354C159.2 356.254 158.9 355.254 158.6 354.154C158.3 353.154 157.9 352.054 157.5 351.054C156.7 349.054 155.8 347.054 154.8 345.154C152.7 341.454 150.2 338.054 147.3 335.054C141.4 329.154 134 325.054 126.2 323.254C118.4 321.454 110.2 321.954 103.1 324.854C95.9 327.754 89.8 332.954 85.4 339.454L81.3 345.554L77.2 339.454C72.7 332.954 66.7 327.654 59.5 324.754C52.3 321.854 44.2 321.354 36.3 323.154C28.5 324.954 21.1 329.054 15.2 334.954C12.3 337.854 9.70001 341.354 7.70001 345.054C6.70001 346.954 5.8 348.854 5 350.954C4.6 351.954 4.20002 352.954 3.90002 354.054C3.60002 355.154 3.3 356.254 3 357.354Z" fill="#700000"/>
</g>
<g filter="url(#filter20_f_862_12584)">
<path d="M7.08462 375.555C4.78462 367.255 6.18462 357.555 10.8846 349.155C15.5846 340.755 23.4846 333.755 33.0846 329.855C37.8846 327.955 43.0846 326.755 48.4846 326.555C53.8846 326.355 59.3846 327.055 64.6846 328.755C69.9846 330.455 74.9846 333.155 79.3846 336.555C83.7846 339.955 87.3846 344.055 90.3846 348.355H65.5846C66.3846 347.255 67.1846 346.255 67.9846 345.155C68.7846 344.055 69.6846 343.055 70.5846 342.055C71.4846 341.055 72.4846 340.155 73.4846 339.155C74.4846 338.155 75.5846 337.355 76.5846 336.455C80.9846 333.055 85.9846 330.355 91.2846 328.655C96.5846 326.955 102.185 326.255 107.585 326.455C112.985 326.655 118.185 327.855 122.985 329.755C132.585 333.655 140.485 340.655 145.185 349.055C149.885 357.455 151.285 367.155 148.985 375.455C146.785 371.755 144.585 368.455 142.085 365.655C139.585 362.855 136.885 360.555 133.985 358.655C128.385 354.955 122.285 352.955 116.585 352.555C110.885 352.155 105.585 353.155 101.285 355.355C96.9846 357.555 93.4846 360.755 90.3846 365.255L77.9846 383.055L65.6846 365.255C62.5846 360.855 59.0846 357.555 54.7846 355.355C50.4846 353.155 45.2846 352.055 39.4846 352.555C33.7846 353.055 27.6846 354.955 22.0846 358.755C19.2846 360.655 16.5846 362.955 13.9846 365.755C11.4846 368.555 9.18462 371.755 7.08462 375.555Z" fill="#FF9797"/>
</g>
<g filter="url(#filter21_f_862_12584)">
<path d="M95 449.155C96.8 447.455 98.7 445.755 100.6 444.155C101.5 443.355 102.5 442.555 103.4 441.755C104.3 440.955 105.2 440.055 106.1 439.255L111.6 434.255C113.3 432.455 115.1 430.755 116.9 429.055C123.9 422.055 130.5 414.855 136.4 407.055C142.2 399.255 147.3 390.855 150.7 381.755L151.9 378.355C152.3 377.155 152.5 376.055 152.9 374.855L153.4 373.055C153.6 372.455 153.6 371.855 153.8 371.255L154.5 367.655C155.2 362.855 155.3 357.855 154.8 352.955C156.4 357.755 156.9 362.855 156.9 367.955L156.6 371.755C156.5 372.355 156.5 373.055 156.4 373.655L156.1 375.555C155.9 376.855 155.7 378.055 155.4 379.355L154.4 383.055C151.5 392.855 146.5 401.955 140.4 410.055C134.3 418.155 127.2 425.455 119.5 431.955C117.6 433.555 115.7 435.155 113.7 436.755L107.6 441.155C106.6 441.855 105.6 442.655 104.5 443.355C103.4 444.055 102.4 444.755 101.3 445.355C99.3 446.555 97.2 447.955 95 449.155Z" fill="white"/>
</g>
</g>
<g style="mix-blend-mode:soft-light">
<path d="M78.3053 336.754C117.605 279.054 232.905 364.154 78.3053 460.854C-76.2947 364.154 39.0053 279.054 78.3053 336.754Z" fill="url(#paint18_linear_862_12584)"/>
</g>
<g style="mix-blend-mode:soft-light">
<path d="M78.3053 336.754C39.0053 279.054 -76.2947 364.154 78.3053 460.854C232.905 364.154 117.605 279.054 78.3053 336.754Z" fill="url(#paint19_linear_862_12584)"/>
</g>
<mask id="mask5_862_12584" style="mask-type:alpha" maskUnits="userSpaceOnUse" x="0" y="318" width="157" height="143">
<path d="M78.2615 336.754C117.561 279.054 232.861 364.154 78.2615 460.854C-76.2385 364.154 38.9615 279.054 78.2615 336.754Z" fill="url(#paint20_linear_862_12584)"/>
</mask>
<g mask="url(#mask5_862_12584)">
<g filter="url(#filter22_f_862_12584)">
<path d="M51 318.555C53.8 318.955 56.5 319.655 59.2 320.655C61.8 321.655 64.4 322.955 66.8 324.555C69.2 326.055 71.4 327.955 73.4 329.955C75.4 331.955 77.2 334.155 78.8 336.555H78C79.6 334.255 81.4 332.055 83.4 329.955C85.4 327.955 87.6 326.055 90 324.555C92.4 322.955 94.9 321.655 97.6 320.655C100.3 319.655 103 318.955 105.8 318.555C100.2 319.655 95 321.955 90.4 325.155C88.1 326.755 86 328.555 84 330.555C82.1 332.555 80.3 334.755 78.7 337.055L78.3 337.655L78 337.055C76.4 334.755 74.7 332.555 72.7 330.555C70.8 328.555 68.6 326.755 66.3 325.155C61.8 321.955 56.5 319.655 51 318.555Z" fill="#820010"/>
</g>
<g filter="url(#filter23_f_862_12584)">
<path d="M51 318.555C53.8 318.955 56.5 319.655 59.2 320.655C61.8 321.655 64.4 322.955 66.8 324.555C69.2 326.055 71.4 327.955 73.4 329.955C75.4 331.955 77.2 334.155 78.8 336.555H78C79.6 334.255 81.4 332.055 83.4 329.955C85.4 327.955 87.6 326.055 90 324.555C92.4 322.955 94.9 321.655 97.6 320.655C100.3 319.655 103 318.955 105.8 318.555C100.2 319.655 95 321.955 90.4 325.155C88.1 326.755 86 328.555 84 330.555C82.1 332.555 80.3 334.755 78.7 337.055L78.3 337.655L78 337.055C76.4 334.755 74.7 332.555 72.7 330.555C70.8 328.555 68.6 326.755 66.3 325.155C61.8 321.955 56.5 319.655 51 318.555Z" fill="#820010"/>
</g>
<g filter="url(#filter24_f_862_12584)">
<path d="M51 318.555C53.8 318.955 56.5 319.655 59.2 320.655C61.8 321.655 64.4 322.955 66.8 324.555C69.2 326.055 71.4 327.955 73.4 329.955C75.4 331.955 77.2 334.155 78.8 336.555H78C79.6 334.255 81.4 332.055 83.4 329.955C85.4 327.955 87.6 326.055 90 324.555C92.4 322.955 94.9 321.655 97.6 320.655C100.3 319.655 103 318.955 105.8 318.555C100.2 319.655 95 321.955 90.4 325.155C88.1 326.755 86 328.555 84 330.555C82.1 332.555 80.3 334.755 78.7 337.055L78.3 337.655L78 337.055C76.4 334.755 74.7 332.555 72.7 330.555C70.8 328.555 68.6 326.755 66.3 325.155C61.8 321.955 56.5 319.655 51 318.555Z" fill="#820010"/>
</g>
</g>
<path d="M465.261 18.7542C504.561 -38.9458 619.861 46.1543 465.261 142.854C310.761 46.1543 425.961 -38.9458 465.261 18.7542Z" fill="url(#paint21_linear_862_12584)"/>
<mask id="mask6_862_12584" style="mask-type:alpha" maskUnits="userSpaceOnUse" x="387" y="0" width="157" height="143">
<path d="M465.261 18.7542C504.561 -38.9458 619.861 46.1543 465.261 142.854C310.761 46.1543 425.961 -38.9458 465.261 18.7542Z" fill="url(#paint22_linear_862_12584)"/>
</mask>
<g mask="url(#mask6_862_12584)">
<g filter="url(#filter25_f_862_12584)">
<path d="M397.085 57.5551C394.785 49.2551 396.185 39.5551 400.885 31.1551C405.585 22.7551 413.485 15.7551 423.085 11.8551C427.885 9.95507 433.085 8.75507 438.485 8.55507C443.885 8.35507 449.385 9.05507 454.685 10.7551C459.985 12.4551 464.985 15.1551 469.385 18.5551C473.785 21.9551 477.385 26.0551 480.385 30.3551H455.585C456.385 29.2551 457.185 28.2551 457.985 27.1551C458.785 26.0551 459.685 25.0551 460.585 24.0551C461.485 23.0551 462.485 22.1551 463.485 21.1551C464.485 20.1551 465.585 19.3551 466.585 18.4551C470.985 15.0551 475.985 12.3551 481.285 10.6551C486.585 8.95507 492.185 8.25507 497.585 8.45507C502.985 8.65507 508.185 9.85507 512.985 11.7551C522.585 15.6551 530.485 22.6551 535.185 31.0551C539.885 39.4551 541.285 49.1551 538.985 57.4551C536.785 53.7551 534.585 50.4551 532.085 47.6551C529.585 44.8551 526.885 42.5551 523.985 40.6551C518.385 36.9551 512.285 34.9551 506.585 34.5551C500.885 34.1551 495.585 35.1551 491.285 37.3551C486.985 39.5551 483.485 42.7551 480.385 47.2551L467.985 65.0551L455.585 47.2551C452.485 42.8551 448.985 39.5551 444.685 37.3551C440.385 35.1551 435.185 34.0551 429.385 34.5551C423.685 35.0551 417.585 36.9551 411.985 40.7551C409.185 42.6551 406.485 44.9551 403.885 47.7551C401.485 50.5551 399.185 53.7551 397.085 57.5551Z" fill="#FF3E3E"/>
</g>
<g filter="url(#filter26_f_862_12584)">
<path d="M449 131.154C446.8 129.854 444.7 128.554 442.6 127.254C441.5 126.554 440.5 125.954 439.4 125.254C438.4 124.554 437.4 123.854 436.3 123.054L430.2 118.654C428.2 117.054 426.3 115.454 424.4 113.854C416.8 107.354 409.6 100.054 403.5 91.9545C397.4 83.8545 392.4 74.7545 389.5 64.9545L388.5 61.2545C388.2 60.0545 388 58.7545 387.8 57.4545L387.5 55.5545C387.4 54.9545 387.4 54.2545 387.3 53.6545L387 49.8545C387 44.7545 387.6 39.6545 389.1 34.8545C388.6 39.8545 388.8 44.7545 389.4 49.5545L390.1 53.1545C390.2 53.7545 390.3 54.3545 390.5 54.9545L391 56.7545C391.4 57.9545 391.6 59.0545 392 60.2545L393.2 63.6545C396.6 72.7545 401.6 81.1545 407.5 88.9545C413.3 96.7545 420 103.954 427 110.954C428.8 112.654 430.5 114.354 432.3 116.154L437.8 121.154C438.7 121.954 439.6 122.854 440.5 123.654C441.4 124.454 442.4 125.254 443.3 126.054C445.3 127.754 447.2 129.454 449 131.154Z" fill="white"/>
</g>
<g filter="url(#filter27_f_862_12584)">
<path d="M390 39.3545C390 30.5545 392.9 21.4545 398.5 13.9545C404 6.45449 412.1 0.754493 421.1 -2.24551C430.2 -5.24551 440.4 -5.34551 449.7 -1.94551C454.3 -0.345508 458.7 2.15449 462.5 5.25449C466.3 8.35449 469.6 11.9545 472.4 15.9545H464.1C466.8 11.9545 470.1 8.35449 473.9 5.25449C477.7 2.15449 482.1 -0.245508 486.7 -1.94551C496 -5.24551 506.2 -5.24551 515.3 -2.24551C524.4 0.754493 532.4 6.45449 538 13.9545C543.6 21.4545 546.5 30.5545 546.5 39.3545C546.2 38.2545 545.9 37.2545 545.6 36.1545C545.3 35.1545 544.9 34.0545 544.5 33.0545C543.7 31.0545 542.8 29.0545 541.8 27.1545C539.7 23.4545 537.2 20.0545 534.3 17.0545C528.4 11.1545 521 7.05449 513.2 5.25449C505.4 3.45449 497.2 3.95449 490.1 6.85449C482.9 9.75449 476.8 14.9545 472.4 21.4545L468.3 27.5545L464.2 21.4545C459.7 14.9545 453.7 9.65449 446.5 6.75449C439.3 3.85449 431.2 3.35449 423.3 5.15449C415.5 6.95449 408.1 11.0545 402.2 16.9545C399.3 19.8545 396.7 23.3545 394.7 27.0545C393.7 28.9545 392.8 30.8545 392 32.9545C391.6 33.9545 391.2 34.9545 390.9 36.0545C390.6 37.1545 390.3 38.2545 390 39.3545Z" fill="#700000"/>
</g>
<g filter="url(#filter28_f_862_12584)">
<path d="M390 39.3545C390 30.5545 392.9 21.4545 398.5 13.9545C404 6.45449 412.1 0.754493 421.1 -2.24551C430.2 -5.24551 440.4 -5.34551 449.7 -1.94551C454.3 -0.345508 458.7 2.15449 462.5 5.25449C466.3 8.35449 469.6 11.9545 472.4 15.9545H464.1C466.8 11.9545 470.1 8.35449 473.9 5.25449C477.7 2.15449 482.1 -0.245508 486.7 -1.94551C496 -5.24551 506.2 -5.24551 515.3 -2.24551C524.4 0.754493 532.4 6.45449 538 13.9545C543.6 21.4545 546.5 30.5545 546.5 39.3545C546.2 38.2545 545.9 37.2545 545.6 36.1545C545.3 35.1545 544.9 34.0545 544.5 33.0545C543.7 31.0545 542.8 29.0545 541.8 27.1545C539.7 23.4545 537.2 20.0545 534.3 17.0545C528.4 11.1545 521 7.05449 513.2 5.25449C505.4 3.45449 497.2 3.95449 490.1 6.85449C482.9 9.75449 476.8 14.9545 472.4 21.4545L468.3 27.5545L464.2 21.4545C459.7 14.9545 453.7 9.65449 446.5 6.75449C439.3 3.85449 431.2 3.35449 423.3 5.15449C415.5 6.95449 408.1 11.0545 402.2 16.9545C399.3 19.8545 396.7 23.3545 394.7 27.0545C393.7 28.9545 392.8 30.8545 392 32.9545C391.6 33.9545 391.2 34.9545 390.9 36.0545C390.6 37.1545 390.3 38.2545 390 39.3545Z" fill="#700000"/>
</g>
<g filter="url(#filter29_f_862_12584)">
<path d="M394.085 57.5551C391.785 49.2551 393.185 39.5551 397.885 31.1551C402.585 22.7551 410.485 15.7551 420.085 11.8551C424.885 9.95507 430.085 8.75507 435.485 8.55507C440.885 8.35507 446.385 9.05507 451.685 10.7551C456.985 12.4551 461.985 15.1551 466.385 18.5551C470.785 21.9551 474.385 26.0551 477.385 30.3551H452.585C453.385 29.2551 454.185 28.2551 454.985 27.1551C455.785 26.0551 456.685 25.0551 457.585 24.0551C458.485 23.0551 459.485 22.1551 460.485 21.1551C461.485 20.1551 462.585 19.3551 463.585 18.4551C467.985 15.0551 472.985 12.3551 478.285 10.6551C483.585 8.95507 489.185 8.25507 494.585 8.45507C499.985 8.65507 505.185 9.85507 509.985 11.7551C519.585 15.6551 527.485 22.6551 532.185 31.0551C536.885 39.4551 538.285 49.1551 535.985 57.4551C533.785 53.7551 531.585 50.4551 529.085 47.6551C526.585 44.8551 523.885 42.5551 520.985 40.6551C515.385 36.9551 509.285 34.9551 503.585 34.5551C497.885 34.1551 492.585 35.1551 488.285 37.3551C483.985 39.5551 480.485 42.7551 477.385 47.2551L464.985 65.0551L452.685 47.2551C449.585 42.8551 446.085 39.5551 441.785 37.3551C437.485 35.1551 432.285 34.0551 426.485 34.5551C420.785 35.0551 414.685 36.9551 409.085 40.7551C406.285 42.6551 403.585 44.9551 400.985 47.7551C398.485 50.5551 396.185 53.7551 394.085 57.5551Z" fill="#FF9797"/>
</g>
<g filter="url(#filter30_f_862_12584)">
<path d="M482 131.155C483.8 129.455 485.7 127.755 487.6 126.155C488.5 125.355 489.5 124.555 490.4 123.755C491.3 122.955 492.2 122.055 493.1 121.255L498.6 116.255C500.3 114.455 502.1 112.755 503.9 111.055C510.9 104.055 517.5 96.8551 523.4 89.0551C529.2 81.2551 534.3 72.8551 537.7 63.7551L538.9 60.3551C539.3 59.1551 539.5 58.0551 539.9 56.8551L540.4 55.0551C540.6 54.4551 540.6 53.8551 540.8 53.2551L541.5 49.6551C542.2 44.8551 542.3 39.8551 541.8 34.9551C543.4 39.7551 543.9 44.8551 543.9 49.9551L543.6 53.7551C543.5 54.3551 543.5 55.0551 543.4 55.6551L543.1 57.5551C542.9 58.8551 542.7 60.0551 542.4 61.3551L541.4 65.0551C538.5 74.8551 533.5 83.9551 527.4 92.0551C521.3 100.155 514.2 107.455 506.5 113.955C504.6 115.555 502.7 117.155 500.7 118.755L494.6 123.155C493.6 123.855 492.6 124.655 491.5 125.355C490.4 126.055 489.4 126.755 488.3 127.355C486.3 128.555 484.2 129.955 482 131.155Z" fill="white"/>
</g>
</g>
<g style="mix-blend-mode:soft-light">
<path d="M465.305 18.7542C504.605 -38.9458 619.905 46.1543 465.305 142.854C310.705 46.1543 426.005 -38.9458 465.305 18.7542Z" fill="url(#paint23_linear_862_12584)"/>
</g>
<g style="mix-blend-mode:soft-light">
<path d="M465.305 18.7542C426.005 -38.9458 310.705 46.1543 465.305 142.854C619.905 46.1543 504.605 -38.9458 465.305 18.7542Z" fill="url(#paint24_linear_862_12584)"/>
</g>
<mask id="mask7_862_12584" style="mask-type:alpha" maskUnits="userSpaceOnUse" x="387" y="0" width="157" height="143">
<path d="M465.261 18.7542C504.561 -38.9458 619.861 46.1543 465.261 142.854C310.761 46.1543 425.961 -38.9458 465.261 18.7542Z" fill="url(#paint25_linear_862_12584)"/>
</mask>
<g mask="url(#mask7_862_12584)">
<g filter="url(#filter31_f_862_12584)">
<path d="M438 0.554688C440.8 0.954688 443.5 1.65469 446.2 2.65469C448.8 3.65469 451.4 4.95469 453.8 6.55469C456.2 8.05469 458.4 9.95469 460.4 11.9547C462.4 13.9547 464.2 16.1547 465.8 18.5547H465C466.6 16.2547 468.4 14.0547 470.4 11.9547C472.4 9.95469 474.6 8.05469 477 6.55469C479.4 4.95469 481.9 3.65469 484.6 2.65469C487.3 1.65469 490 0.954688 492.8 0.554688C487.2 1.65469 482 3.95469 477.4 7.15469C475.1 8.75469 473 10.5547 471 12.5547C469.1 14.5547 467.3 16.7547 465.7 19.0547L465.3 19.6547L465 19.0547C463.4 16.7547 461.7 14.5547 459.7 12.5547C457.8 10.5547 455.6 8.75469 453.3 7.15469C448.8 3.95469 443.5 1.65469 438 0.554688Z" fill="#820010"/>
</g>
<g filter="url(#filter32_f_862_12584)">
<path d="M438 0.554688C440.8 0.954688 443.5 1.65469 446.2 2.65469C448.8 3.65469 451.4 4.95469 453.8 6.55469C456.2 8.05469 458.4 9.95469 460.4 11.9547C462.4 13.9547 464.2 16.1547 465.8 18.5547H465C466.6 16.2547 468.4 14.0547 470.4 11.9547C472.4 9.95469 474.6 8.05469 477 6.55469C479.4 4.95469 481.9 3.65469 484.6 2.65469C487.3 1.65469 490 0.954688 492.8 0.554688C487.2 1.65469 482 3.95469 477.4 7.15469C475.1 8.75469 473 10.5547 471 12.5547C469.1 14.5547 467.3 16.7547 465.7 19.0547L465.3 19.6547L465 19.0547C463.4 16.7547 461.7 14.5547 459.7 12.5547C457.8 10.5547 455.6 8.75469 453.3 7.15469C448.8 3.95469 443.5 1.65469 438 0.554688Z" fill="#820010"/>
</g>
<g filter="url(#filter33_f_862_12584)">
<path d="M438 0.554688C440.8 0.954688 443.5 1.65469 446.2 2.65469C448.8 3.65469 451.4 4.95469 453.8 6.55469C456.2 8.05469 458.4 9.95469 460.4 11.9547C462.4 13.9547 464.2 16.1547 465.8 18.5547H465C466.6 16.2547 468.4 14.0547 470.4 11.9547C472.4 9.95469 474.6 8.05469 477 6.55469C479.4 4.95469 481.9 3.65469 484.6 2.65469C487.3 1.65469 490 0.954688 492.8 0.554688C487.2 1.65469 482 3.95469 477.4 7.15469C475.1 8.75469 473 10.5547 471 12.5547C469.1 14.5547 467.3 16.7547 465.7 19.0547L465.3 19.6547L465 19.0547C463.4 16.7547 461.7 14.5547 459.7 12.5547C457.8 10.5547 455.6 8.75469 453.3 7.15469C448.8 3.95469 443.5 1.65469 438 0.554688Z" fill="#820010"/>
</g>
</g>
<defs>
<filter id="filter0_f_862_12584" x="14.1851" y="216.113" width="535.022" height="306.595" filterUnits="userSpaceOnUse" color-interpolation-filters="sRGB">
<feFlood flood-opacity="0" result="BackgroundImageFix"/>
<feBlend mode="normal" in="SourceGraphic" in2="BackgroundImageFix" result="shape"/>
<feGaussianBlur stdDeviation="12.5" result="effect1_foregroundBlur_862_12584"/>
</filter>
<filter id="filter1_f_862_12584" x="-0.814941" y="201.113" width="565.022" height="336.595" filterUnits="userSpaceOnUse" color-interpolation-filters="sRGB">
<feFlood flood-opacity="0" result="BackgroundImageFix"/>
<feBlend mode="normal" in="SourceGraphic" in2="BackgroundImageFix" result="shape"/>
<feGaussianBlur stdDeviation="20" result="effect1_foregroundBlur_862_12584"/>
</filter>
<filter id="filter2_f_862_12584" x="306" y="152.555" width="220" height="220" filterUnits="userSpaceOnUse" color-interpolation-filters="sRGB">
<feFlood flood-opacity="0" result="BackgroundImageFix"/>
<feBlend mode="normal" in="SourceGraphic" in2="BackgroundImageFix" result="shape"/>
<feGaussianBlur stdDeviation="30" result="effect1_foregroundBlur_862_12584"/>
</filter>
<filter id="filter3_f_862_12584" x="39" y="152.555" width="220" height="220" filterUnits="userSpaceOnUse" color-interpolation-filters="sRGB">
<feFlood flood-opacity="0" result="BackgroundImageFix"/>
<feBlend mode="normal" in="SourceGraphic" in2="BackgroundImageFix" result="shape"/>
<feGaussianBlur stdDeviation="30" result="effect1_foregroundBlur_862_12584"/>
</filter>
<filter id="filter4_f_862_12584" x="327" y="-40" width="276.567" height="262.854" filterUnits="userSpaceOnUse" color-interpolation-filters="sRGB">
<feFlood flood-opacity="0" result="BackgroundImageFix"/>
<feBlend mode="normal" in="SourceGraphic" in2="BackgroundImageFix" result="shape"/>
<feGaussianBlur stdDeviation="30" result="effect1_foregroundBlur_862_12584"/>
</filter>
<filter id="filter5_f_862_12584" x="-50" y="257.555" width="276.567" height="262.854" filterUnits="userSpaceOnUse" color-interpolation-filters="sRGB">
<feFlood flood-opacity="0" result="BackgroundImageFix"/>
<feBlend mode="normal" in="SourceGraphic" in2="BackgroundImageFix" result="shape"/>
<feGaussianBlur stdDeviation="30" result="effect1_foregroundBlur_862_12584"/>
</filter>
<filter id="filter6_f_862_12584" x="307" y="320.555" width="276.567" height="262.854" filterUnits="userSpaceOnUse" color-interpolation-filters="sRGB">
<feFlood flood-opacity="0" result="BackgroundImageFix"/>
<feBlend mode="normal" in="SourceGraphic" in2="BackgroundImageFix" result="shape"/>
<feGaussianBlur stdDeviation="30" result="effect1_foregroundBlur_862_12584"/>
</filter>
<filter id="filter7_f_862_12584" x="376" y="368.422" width="184.069" height="96.6328" filterUnits="userSpaceOnUse" color-interpolation-filters="sRGB">
<feFlood flood-opacity="0" result="BackgroundImageFix"/>
<feBlend mode="normal" in="SourceGraphic" in2="BackgroundImageFix" result="shape"/>
<feGaussianBlur stdDeviation="10" result="effect1_foregroundBlur_862_12584"/>
</filter>
<filter id="filter8_f_862_12584" x="377" y="404.854" width="82" height="116.3" filterUnits="userSpaceOnUse" color-interpolation-filters="sRGB">
<feFlood flood-opacity="0" result="BackgroundImageFix"/>
<feBlend mode="normal" in="SourceGraphic" in2="BackgroundImageFix" result="shape"/>
<feGaussianBlur stdDeviation="5" result="effect1_foregroundBlur_862_12584"/>
</filter>
<filter id="filter9_f_862_12584" x="370" y="355.504" width="196.5" height="83.8506" filterUnits="userSpaceOnUse" color-interpolation-filters="sRGB">
<feFlood flood-opacity="0" result="BackgroundImageFix"/>
<feBlend mode="normal" in="SourceGraphic" in2="BackgroundImageFix" result="shape"/>
<feGaussianBlur stdDeviation="10" result="effect1_foregroundBlur_862_12584"/>
</filter>
<filter id="filter10_f_862_12584" x="370" y="355.504" width="196.5" height="83.8506" filterUnits="userSpaceOnUse" color-interpolation-filters="sRGB">
<feFlood flood-opacity="0" result="BackgroundImageFix"/>
<feBlend mode="normal" in="SourceGraphic" in2="BackgroundImageFix" result="shape"/>
<feGaussianBlur stdDeviation="10" result="effect1_foregroundBlur_862_12584"/>
</filter>
<filter id="filter11_f_862_12584" x="353" y="348.422" width="224.069" height="136.633" filterUnits="userSpaceOnUse" color-interpolation-filters="sRGB">
<feFlood flood-opacity="0" result="BackgroundImageFix"/>
<feBlend mode="normal" in="SourceGraphic" in2="BackgroundImageFix" result="shape"/>
<feGaussianBlur stdDeviation="20" result="effect1_foregroundBlur_862_12584"/>
</filter>
<filter id="filter12_f_862_12584" x="472" y="404.955" width="81.8999" height="116.2" filterUnits="userSpaceOnUse" color-interpolation-filters="sRGB">
<feFlood flood-opacity="0" result="BackgroundImageFix"/>
<feBlend mode="normal" in="SourceGraphic" in2="BackgroundImageFix" result="shape"/>
<feGaussianBlur stdDeviation="5" result="effect1_foregroundBlur_862_12584"/>
</filter>
<filter id="filter13_f_862_12584" x="432" y="374.555" width="66.7998" height="31.0996" filterUnits="userSpaceOnUse" color-interpolation-filters="sRGB">
<feFlood flood-opacity="0" result="BackgroundImageFix"/>
<feBlend mode="normal" in="SourceGraphic" in2="BackgroundImageFix" result="shape"/>
<feGaussianBlur stdDeviation="3" result="effect1_foregroundBlur_862_12584"/>
</filter>
<filter id="filter14_f_862_12584" x="434" y="376.555" width="62.7998" height="27.0996" filterUnits="userSpaceOnUse" color-interpolation-filters="sRGB">
<feFlood flood-opacity="0" result="BackgroundImageFix"/>
<feBlend mode="normal" in="SourceGraphic" in2="BackgroundImageFix" result="shape"/>
<feGaussianBlur stdDeviation="2" result="effect1_foregroundBlur_862_12584"/>
</filter>
<filter id="filter15_f_862_12584" x="430" y="372.555" width="70.7998" height="35.0996" filterUnits="userSpaceOnUse" color-interpolation-filters="sRGB">
<feFlood flood-opacity="0" result="BackgroundImageFix"/>
<feBlend mode="normal" in="SourceGraphic" in2="BackgroundImageFix" result="shape"/>
<feGaussianBlur stdDeviation="4" result="effect1_foregroundBlur_862_12584"/>
</filter>
<filter id="filter16_f_862_12584" x="-11" y="306.422" width="184.069" height="96.6328" filterUnits="userSpaceOnUse" color-interpolation-filters="sRGB">
<feFlood flood-opacity="0" result="BackgroundImageFix"/>
<feBlend mode="normal" in="SourceGraphic" in2="BackgroundImageFix" result="shape"/>
<feGaussianBlur stdDeviation="10" result="effect1_foregroundBlur_862_12584"/>
</filter>
<filter id="filter17_f_862_12584" x="-10" y="342.854" width="82" height="116.3" filterUnits="userSpaceOnUse" color-interpolation-filters="sRGB">
<feFlood flood-opacity="0" result="BackgroundImageFix"/>
<feBlend mode="normal" in="SourceGraphic" in2="BackgroundImageFix" result="shape"/>
<feGaussianBlur stdDeviation="5" result="effect1_foregroundBlur_862_12584"/>
</filter>
<filter id="filter18_f_862_12584" x="-17" y="293.504" width="196.5" height="83.8506" filterUnits="userSpaceOnUse" color-interpolation-filters="sRGB">
<feFlood flood-opacity="0" result="BackgroundImageFix"/>
<feBlend mode="normal" in="SourceGraphic" in2="BackgroundImageFix" result="shape"/>
<feGaussianBlur stdDeviation="10" result="effect1_foregroundBlur_862_12584"/>
</filter>
<filter id="filter19_f_862_12584" x="-17" y="293.504" width="196.5" height="83.8506" filterUnits="userSpaceOnUse" color-interpolation-filters="sRGB">
<feFlood flood-opacity="0" result="BackgroundImageFix"/>
<feBlend mode="normal" in="SourceGraphic" in2="BackgroundImageFix" result="shape"/>
<feGaussianBlur stdDeviation="10" result="effect1_foregroundBlur_862_12584"/>
</filter>
<filter id="filter20_f_862_12584" x="-34" y="286.422" width="224.069" height="136.633" filterUnits="userSpaceOnUse" color-interpolation-filters="sRGB">
<feFlood flood-opacity="0" result="BackgroundImageFix"/>
<feBlend mode="normal" in="SourceGraphic" in2="BackgroundImageFix" result="shape"/>
<feGaussianBlur stdDeviation="20" result="effect1_foregroundBlur_862_12584"/>
</filter>
<filter id="filter21_f_862_12584" x="85" y="342.955" width="81.8999" height="116.2" filterUnits="userSpaceOnUse" color-interpolation-filters="sRGB">
<feFlood flood-opacity="0" result="BackgroundImageFix"/>
<feBlend mode="normal" in="SourceGraphic" in2="BackgroundImageFix" result="shape"/>
<feGaussianBlur stdDeviation="5" result="effect1_foregroundBlur_862_12584"/>
</filter>
<filter id="filter22_f_862_12584" x="45" y="312.555" width="66.7998" height="31.0996" filterUnits="userSpaceOnUse" color-interpolation-filters="sRGB">
<feFlood flood-opacity="0" result="BackgroundImageFix"/>
<feBlend mode="normal" in="SourceGraphic" in2="BackgroundImageFix" result="shape"/>
<feGaussianBlur stdDeviation="3" result="effect1_foregroundBlur_862_12584"/>
</filter>
<filter id="filter23_f_862_12584" x="47" y="314.555" width="62.7998" height="27.0996" filterUnits="userSpaceOnUse" color-interpolation-filters="sRGB">
<feFlood flood-opacity="0" result="BackgroundImageFix"/>
<feBlend mode="normal" in="SourceGraphic" in2="BackgroundImageFix" result="shape"/>
<feGaussianBlur stdDeviation="2" result="effect1_foregroundBlur_862_12584"/>
</filter>
<filter id="filter24_f_862_12584" x="43" y="310.555" width="70.7998" height="35.0996" filterUnits="userSpaceOnUse" color-interpolation-filters="sRGB">
<feFlood flood-opacity="0" result="BackgroundImageFix"/>
<feBlend mode="normal" in="SourceGraphic" in2="BackgroundImageFix" result="shape"/>
<feGaussianBlur stdDeviation="4" result="effect1_foregroundBlur_862_12584"/>
</filter>
<filter id="filter25_f_862_12584" x="376" y="-11.5781" width="184.069" height="96.6328" filterUnits="userSpaceOnUse" color-interpolation-filters="sRGB">
<feFlood flood-opacity="0" result="BackgroundImageFix"/>
<feBlend mode="normal" in="SourceGraphic" in2="BackgroundImageFix" result="shape"/>
<feGaussianBlur stdDeviation="10" result="effect1_foregroundBlur_862_12584"/>
</filter>
<filter id="filter26_f_862_12584" x="377" y="24.8545" width="82" height="116.3" filterUnits="userSpaceOnUse" color-interpolation-filters="sRGB">
<feFlood flood-opacity="0" result="BackgroundImageFix"/>
<feBlend mode="normal" in="SourceGraphic" in2="BackgroundImageFix" result="shape"/>
<feGaussianBlur stdDeviation="5" result="effect1_foregroundBlur_862_12584"/>
</filter>
<filter id="filter27_f_862_12584" x="370" y="-24.4961" width="196.5" height="83.8506" filterUnits="userSpaceOnUse" color-interpolation-filters="sRGB">
<feFlood flood-opacity="0" result="BackgroundImageFix"/>
<feBlend mode="normal" in="SourceGraphic" in2="BackgroundImageFix" result="shape"/>
<feGaussianBlur stdDeviation="10" result="effect1_foregroundBlur_862_12584"/>
</filter>
<filter id="filter28_f_862_12584" x="370" y="-24.4961" width="196.5" height="83.8506" filterUnits="userSpaceOnUse" color-interpolation-filters="sRGB">
<feFlood flood-opacity="0" result="BackgroundImageFix"/>
<feBlend mode="normal" in="SourceGraphic" in2="BackgroundImageFix" result="shape"/>
<feGaussianBlur stdDeviation="10" result="effect1_foregroundBlur_862_12584"/>
</filter>
<filter id="filter29_f_862_12584" x="353" y="-31.5781" width="224.069" height="136.633" filterUnits="userSpaceOnUse" color-interpolation-filters="sRGB">
<feFlood flood-opacity="0" result="BackgroundImageFix"/>
<feBlend mode="normal" in="SourceGraphic" in2="BackgroundImageFix" result="shape"/>
<feGaussianBlur stdDeviation="20" result="effect1_foregroundBlur_862_12584"/>
</filter>
<filter id="filter30_f_862_12584" x="472" y="24.9551" width="81.8999" height="116.2" filterUnits="userSpaceOnUse" color-interpolation-filters="sRGB">
<feFlood flood-opacity="0" result="BackgroundImageFix"/>
<feBlend mode="normal" in="SourceGraphic" in2="BackgroundImageFix" result="shape"/>
<feGaussianBlur stdDeviation="5" result="effect1_foregroundBlur_862_12584"/>
</filter>
<filter id="filter31_f_862_12584" x="432" y="-5.44531" width="66.7998" height="31.0996" filterUnits="userSpaceOnUse" color-interpolation-filters="sRGB">
<feFlood flood-opacity="0" result="BackgroundImageFix"/>
<feBlend mode="normal" in="SourceGraphic" in2="BackgroundImageFix" result="shape"/>
<feGaussianBlur stdDeviation="3" result="effect1_foregroundBlur_862_12584"/>
</filter>
<filter id="filter32_f_862_12584" x="434" y="-3.44531" width="62.7998" height="27.0996" filterUnits="userSpaceOnUse" color-interpolation-filters="sRGB">
<feFlood flood-opacity="0" result="BackgroundImageFix"/>
<feBlend mode="normal" in="SourceGraphic" in2="BackgroundImageFix" result="shape"/>
<feGaussianBlur stdDeviation="2" result="effect1_foregroundBlur_862_12584"/>
</filter>
<filter id="filter33_f_862_12584" x="430" y="-7.44531" width="70.7998" height="35.0996" filterUnits="userSpaceOnUse" color-interpolation-filters="sRGB">
<feFlood flood-opacity="0" result="BackgroundImageFix"/>
<feBlend mode="normal" in="SourceGraphic" in2="BackgroundImageFix" result="shape"/>
<feGaussianBlur stdDeviation="4" result="effect1_foregroundBlur_862_12584"/>
</filter>
<radialGradient id="paint0_radial_862_12584" cx="0" cy="0" r="1" gradientUnits="userSpaceOnUse" gradientTransform="translate(282 9.55468) rotate(90) scale(482)">
<stop stop-color="#FFDE43"/>
<stop offset="1" stop-color="#FFBC00"/>
</radialGradient>
<radialGradient id="paint1_radial_862_12584" cx="0" cy="0" r="1" gradientUnits="userSpaceOnUse" gradientTransform="translate(282 74.0547) rotate(90) scale(417.5)">
<stop stop-color="white" stop-opacity="0.5"/>
<stop offset="0.782278"/>
</radialGradient>
<radialGradient id="paint2_radial_862_12584" cx="0" cy="0" r="1" gradientUnits="userSpaceOnUse" gradientTransform="translate(282 74.0547) rotate(90) scale(417.5)">
<stop stop-color="white" stop-opacity="0.5"/>
<stop offset="0.782278"/>
</radialGradient>
<radialGradient id="paint3_radial_862_12584" cx="0" cy="0" r="1" gradientUnits="userSpaceOnUse" gradientTransform="translate(282 -42.9453) rotate(90) scale(534.5 722.835)">
<stop offset="0.0922635" stop-color="white"/>
<stop offset="0.670207" stop-color="white" stop-opacity="0"/>
</radialGradient>
<radialGradient id="paint4_radial_862_12584" cx="0" cy="0" r="1" gradientUnits="userSpaceOnUse" gradientTransform="translate(282.357 369.705) scale(56.1265 58.608)">
<stop stop-color="#743C1C"/>
<stop offset="1" stop-color="#401C02"/>
</radialGradient>
<linearGradient id="paint5_linear_862_12584" x1="282.357" y1="400.467" x2="282.357" y2="338.942" gradientUnits="userSpaceOnUse">
<stop offset="0.265625" stop-color="#FFDE43"/>
<stop offset="1" stop-color="#F79D14"/>
</linearGradient>
<radialGradient id="paint6_radial_862_12584" cx="0" cy="0" r="1" gradientUnits="userSpaceOnUse" gradientTransform="translate(198.463 243.679) scale(63.3847 18.7281)">
<stop stop-color="#743C1C"/>
<stop offset="1" stop-color="#401C02"/>
</radialGradient>
<linearGradient id="paint7_linear_862_12584" x1="198.532" y1="263.44" x2="198.532" y2="223.793" gradientUnits="userSpaceOnUse">
<stop stop-color="#FFDE43"/>
<stop offset="0.22" stop-color="#FED93F"/>
<stop offset="0.51" stop-color="#FCC934"/>
<stop offset="0.82" stop-color="#F9AF21"/>
<stop offset="1" stop-color="#F79D14"/>
</linearGradient>
<radialGradient id="paint8_radial_862_12584" cx="0" cy="0" r="1" gradientUnits="userSpaceOnUse" gradientTransform="translate(365.546 243.679) scale(63.387 18.7281)">
<stop stop-color="#743C1C"/>
<stop offset="1" stop-color="#401C02"/>
</radialGradient>
<linearGradient id="paint9_linear_862_12584" x1="365.614" y1="263.44" x2="365.614" y2="223.793" gradientUnits="userSpaceOnUse">
<stop stop-color="#FFDE43"/>
<stop offset="0.22" stop-color="#FED93F"/>
<stop offset="0.51" stop-color="#FCC934"/>
<stop offset="0.82" stop-color="#F9AF21"/>
<stop offset="1" stop-color="#F79D14"/>
</linearGradient>
<radialGradient id="paint10_radial_862_12584" cx="0" cy="0" r="1" gradientUnits="userSpaceOnUse" gradientTransform="translate(282 9.55468) rotate(90) scale(482)">
<stop stop-color="#FFDE43"/>
<stop offset="1" stop-color="#FFBC00"/>
</radialGradient>
<linearGradient id="paint11_linear_862_12584" x1="465.294" y1="379.997" x2="465.294" y2="522.851" gradientUnits="userSpaceOnUse">
<stop stop-color="#FF0000"/>
<stop offset="1" stop-color="#610003"/>
</linearGradient>
<linearGradient id="paint12_linear_862_12584" x1="465.294" y1="379.997" x2="465.294" y2="522.851" gradientUnits="userSpaceOnUse">
<stop stop-color="#FF0000"/>
<stop offset="1" stop-color="#610003"/>
</linearGradient>
<linearGradient id="paint13_linear_862_12584" x1="543.593" y1="451.424" x2="387.015" y2="451.424" gradientUnits="userSpaceOnUse">
<stop stop-color="#FF8F00"/>
<stop offset="0.0143476" stop-color="#FF9001" stop-opacity="0.9857"/>
<stop offset="0.2987" stop-color="#FF9912" stop-opacity="0.7013"/>
<stop offset="0.6103" stop-color="#FF9F1C" stop-opacity="0.3897"/>
<stop offset="1" stop-color="#FFA11F" stop-opacity="0"/>
</linearGradient>
<linearGradient id="paint14_linear_862_12584" x1="387.057" y1="451.424" x2="543.636" y2="451.424" gradientUnits="userSpaceOnUse">
<stop stop-color="#FF8F00"/>
<stop offset="0.0143476" stop-color="#FF9001" stop-opacity="0.9857"/>
<stop offset="0.2987" stop-color="#FF9912" stop-opacity="0.7013"/>
<stop offset="0.6103" stop-color="#FF9F1C" stop-opacity="0.3897"/>
<stop offset="1" stop-color="#FFA11F" stop-opacity="0"/>
</linearGradient>
<linearGradient id="paint15_linear_862_12584" x1="465.294" y1="379.997" x2="465.294" y2="522.851" gradientUnits="userSpaceOnUse">
<stop stop-color="#FF0000"/>
<stop offset="1" stop-color="#610003"/>
</linearGradient>
<linearGradient id="paint16_linear_862_12584" x1="78.2941" y1="317.997" x2="78.2941" y2="460.851" gradientUnits="userSpaceOnUse">
<stop stop-color="#FF0000"/>
<stop offset="1" stop-color="#610003"/>
</linearGradient>
<linearGradient id="paint17_linear_862_12584" x1="78.2941" y1="317.997" x2="78.2941" y2="460.851" gradientUnits="userSpaceOnUse">
<stop stop-color="#FF0000"/>
<stop offset="1" stop-color="#610003"/>
</linearGradient>
<linearGradient id="paint18_linear_862_12584" x1="156.593" y1="389.424" x2="0.0149325" y2="389.424" gradientUnits="userSpaceOnUse">
<stop stop-color="#FF8F00"/>
<stop offset="0.0143476" stop-color="#FF9001" stop-opacity="0.9857"/>
<stop offset="0.2987" stop-color="#FF9912" stop-opacity="0.7013"/>
<stop offset="0.6103" stop-color="#FF9F1C" stop-opacity="0.3897"/>
<stop offset="1" stop-color="#FFA11F" stop-opacity="0"/>
</linearGradient>
<linearGradient id="paint19_linear_862_12584" x1="0.0574391" y1="389.424" x2="156.636" y2="389.424" gradientUnits="userSpaceOnUse">
<stop stop-color="#FF8F00"/>
<stop offset="0.0143476" stop-color="#FF9001" stop-opacity="0.9857"/>
<stop offset="0.2987" stop-color="#FF9912" stop-opacity="0.7013"/>
<stop offset="0.6103" stop-color="#FF9F1C" stop-opacity="0.3897"/>
<stop offset="1" stop-color="#FFA11F" stop-opacity="0"/>
</linearGradient>
<linearGradient id="paint20_linear_862_12584" x1="78.2941" y1="317.997" x2="78.2941" y2="460.851" gradientUnits="userSpaceOnUse">
<stop stop-color="#FF0000"/>
<stop offset="1" stop-color="#610003"/>
</linearGradient>
<linearGradient id="paint21_linear_862_12584" x1="465.294" y1="-0.00335548" x2="465.294" y2="142.851" gradientUnits="userSpaceOnUse">
<stop stop-color="#FF0000"/>
<stop offset="1" stop-color="#610003"/>
</linearGradient>
<linearGradient id="paint22_linear_862_12584" x1="465.294" y1="-0.00335548" x2="465.294" y2="142.851" gradientUnits="userSpaceOnUse">
<stop stop-color="#FF0000"/>
<stop offset="1" stop-color="#610003"/>
</linearGradient>
<linearGradient id="paint23_linear_862_12584" x1="543.593" y1="71.424" x2="387.015" y2="71.424" gradientUnits="userSpaceOnUse">
<stop stop-color="#FF8F00"/>
<stop offset="0.0143476" stop-color="#FF9001" stop-opacity="0.9857"/>
<stop offset="0.2987" stop-color="#FF9912" stop-opacity="0.7013"/>
<stop offset="0.6103" stop-color="#FF9F1C" stop-opacity="0.3897"/>
<stop offset="1" stop-color="#FFA11F" stop-opacity="0"/>
</linearGradient>
<linearGradient id="paint24_linear_862_12584" x1="387.057" y1="71.424" x2="543.636" y2="71.424" gradientUnits="userSpaceOnUse">
<stop stop-color="#FF8F00"/>
<stop offset="0.0143476" stop-color="#FF9001" stop-opacity="0.9857"/>
<stop offset="0.2987" stop-color="#FF9912" stop-opacity="0.7013"/>
<stop offset="0.6103" stop-color="#FF9F1C" stop-opacity="0.3897"/>
<stop offset="1" stop-color="#FFA11F" stop-opacity="0"/>
</linearGradient>
<linearGradient id="paint25_linear_862_12584" x1="465.294" y1="-0.00335548" x2="465.294" y2="142.851" gradientUnits="userSpaceOnUse">
<stop stop-color="#FF0000"/>
<stop offset="1" stop-color="#610003"/>
</linearGradient>
</defs>
</svg>
